<svg width="596" height="842" viewBox="0 0 596 842" fill="none" xmlns="http://www.w3.org/2000/svg">
<g clip-path="url(#clip0_102_3)">
<path d="M417.3 436C419.2 436 422 436.1 424.2 438.2C425.4 439.4 426.3 441.2 426.3 443.9C426.3 446.8 425.3 449.4 423.7 450.8C422.5 451.9 420.2 453.1 415.8 453.1H412.3L411.1 462.4H405L408.3 435.9H417.3V436ZM413 448.1H415.2C416.5 448.1 418 448 419.1 446.9C420 446 420.1 444.8 420.1 444.2C420.1 443.4 419.9 442.6 419.2 441.9C418.2 441 416.7 440.9 415.7 440.9H413.9L413 448.1Z" fill="white"/>
<path d="M454.2 438.8C456.5 441 457.9 444.3 457.9 448.2C457.9 452 456.6 456.1 453.8 458.9C450.5 462.3 446.3 463 442.8 463C439.5 463 435.9 462.4 432.7 459.2C430.9 457.3 429 454.3 429 449.9C429 445.3 430.9 441.6 433.4 439.3C436.8 436.1 440.9 435.3 444.3 435.3C449.4 435.4 452.4 437.1 454.2 438.8ZM437.8 443.5C436.3 445.1 435.4 447.4 435.4 449.6C435.4 452 436.3 453.9 437.5 455.2C439.3 457 441.4 457.4 443.3 457.4C445.1 457.4 447.3 457.1 449.2 455.1C450.6 453.6 451.7 451.3 451.7 448.6C451.7 446.9 451.3 444.7 449.6 443C447.9 441.3 445.7 440.9 444.1 440.9C441.4 441 439.3 441.9 437.8 443.5Z" fill="white"/>
<path d="M472.4 436C474.9 436 477.4 436.2 479.4 438.4C480.3 439.4 481.3 441.1 481.3 443.8C481.3 446.3 480.4 448.3 479.1 449.6C477.9 450.7 476.4 451.5 474.9 451.7L481.7 462.5H474.6L468.2 452.1L466.9 462.5H460.8L464.1 436H472.4ZM468.7 448H470.2C471.2 448 472.7 447.9 473.8 447C474.9 446.2 475.2 445 475.2 443.9C475.2 443.1 475 442 473.9 441.3C473.1 440.8 472 440.7 470.6 440.7H469.7L468.7 448Z" fill="white"/>
<path d="M495.6 441.1L493 462.4H486.9L489.5 441.1H483.7L484.3 435.9H502L501.4 441.1H495.6Z" fill="white"/>
<path d="M527.1 438.8C529.4 441 530.8 444.3 530.8 448.2C530.8 452 529.5 456.1 526.7 458.9C523.4 462.3 519.2 463 515.7 463C512.4 463 508.8 462.4 505.6 459.2C503.8 457.3 501.9 454.3 501.9 449.9C501.9 445.3 503.8 441.6 506.3 439.3C509.7 436.1 513.8 435.3 517.2 435.3C522.3 435.4 525.4 437.1 527.1 438.8ZM510.7 443.5C509.2 445.1 508.3 447.4 508.3 449.6C508.3 452 509.2 453.9 510.4 455.2C512.2 457 514.3 457.4 516.2 457.4C518 457.4 520.2 457.1 522.1 455.1C523.5 453.6 524.6 451.3 524.6 448.6C524.6 446.9 524.2 444.7 522.5 443C520.8 441.3 518.6 440.9 517 440.9C514.4 441 512.3 441.9 510.7 443.5Z" fill="white"/>
<path d="M385.3 426H381.4V474.7H385.3V426Z" fill="white"/>
<path d="M212.7 327.9H163.6L65.4 425.9V465.6H163.6V514.5H212.7V425.9H114.5L212.7 327.9Z" fill="white"/>
<path d="M233.8 376.9L282.9 327.9H233.8V376.9Z" fill="white"/>
<path d="M332 376.9V327.9H282.9V376.9L233.8 425.9V474.9H282.9V425.9L332 376.9Z" fill="white"/>
<path d="M332 425.9L282.9 474.9H332V425.9Z" fill="white"/>
</g>
<defs>
<clipPath id="clip0_102_3">
<rect width="595.3" height="841.9" fill="white"/>
</clipPath>
</defs>
</svg>
